# xmcd
#
# Track frame offsets:
#	150
#	21844
#	48348
#	74116
#	88043
#	128310
#	151413
#	177251
#
# Disc length: 2575 seconds
#
# Revision: 0
# Processed by: cddbd v1.5.2PL0 Copyright (c) Steve Scherf et al.
# Submitted via: EasyCDDAExtractor 10.0.2.1
#
DISCID=630a0d08
DTITLE=Scoop - Songs from The Shed 
DYEAR=2014
DGENRE=Blues
TTITLE0=Big Time
TTITLE1=Serotonin Sun
TTITLE2=Native Prayer
TTITLE3=Dirt Farm
TTITLE4=Blues for Nyx
TTITLE5=This  and That
TTITLE6=Sweat Shop Blues
TTITLE7=Dirt Farm (revisited)
EXTD=
EXTT0=
EXTT1=
EXTT2=
EXTT3=
EXTT4=
EXTT5=
EXTT6=
EXTT7=
PLAYORDER=
